<svg xmlns="http://www.w3.org/2000/svg" viewBox="0 0 280 120" fill="none">
  <rect width="280" height="120" rx="16" fill="#111827"/>
  <ellipse cx="140" cy="60" rx="88" ry="40" fill="#0b0f16"/>
  <ellipse cx="140" cy="60" rx="57" ry="25" fill="#1f2937"/>
  <ellipse cx="140" cy="60" rx="30" ry="13" fill="#9ca3af"/>
  <g fill="#374151">
    <rect x="56" y="28" width="12" height="64" rx="3"/>
    <rect x="76" y="24" width="12" height="72" rx="3"/>
    <rect x="96" y="22" width="12" height="76" rx="3"/>
    <rect x="116" y="20" width="12" height="80" rx="3"/>
    <rect x="136" y="20" width="12" height="80" rx="3"/>
    <rect x="156" y="20" width="12" height="80" rx="3"/>
    <rect x="176" y="22" width="12" height="76" rx="3"/>
    <rect x="196" y="24" width="12" height="72" rx="3"/>
    <rect x="216" y="28" width="12" height="64" rx="3"/>
  </g>
  <text x="16" y="108" fill="#cbd5e1" font-size="16" font-family="Arial, sans-serif">Offroad Tire</text>
</svg>
